<?xml version="1.0" encoding="UTF-8" standalone="no"?>
<!-- Created with Inkscape (http://www.inkscape.org/) -->

<svg
   xmlns:dc="http://purl.org/dc/elements/1.1/"
   xmlns:cc="http://creativecommons.org/ns#"
   xmlns:rdf="http://www.w3.org/1999/02/22-rdf-syntax-ns#"
   xmlns:svg="http://www.w3.org/2000/svg"
   xmlns="http://www.w3.org/2000/svg"
   xmlns:sodipodi="http://sodipodi.sourceforge.net/DTD/sodipodi-0.dtd"
   xmlns:inkscape="http://www.inkscape.org/namespaces/inkscape"
   width="512"
   height="512"
   id="svg3753"
   version="1.1"
   inkscape:version="0.48.4 r9939"
   sodipodi:docname="dashboard.svg"
   inkscape:export-filename="/home/svenni/Dropbox/projects/programming/molecules/molecules/images/dashboard.png"
   inkscape:export-xdpi="22.5"
   inkscape:export-ydpi="22.5">
  <defs
     id="defs3755" />
  <sodipodi:namedview
     id="base"
     pagecolor="#ffffff"
     bordercolor="#666666"
     borderopacity="1.0"
     inkscape:pageopacity="0.0"
     inkscape:pageshadow="2"
     inkscape:zoom="0.60697936"
     inkscape:cx="301.41575"
     inkscape:cy="21.701433"
     inkscape:document-units="px"
     inkscape:current-layer="layer1"
     showgrid="true"
     inkscape:window-width="2511"
     inkscape:window-height="1416"
     inkscape:window-x="49"
     inkscape:window-y="24"
     inkscape:window-maximized="1"
     inkscape:snap-global="true"
     inkscape:object-paths="true"
     inkscape:snap-intersection-paths="true"
     inkscape:object-nodes="true"
     inkscape:snap-smooth-nodes="true"
     inkscape:snap-midpoints="true"
     inkscape:snap-object-midpoints="true"
     inkscape:snap-center="true">
    <inkscape:grid
       type="xygrid"
       id="grid3761"
       empspacing="4"
       visible="true"
       enabled="true"
       snapvisiblegridlinesonly="true" />
  </sodipodi:namedview>
  <metadata
     id="metadata3758">
    <rdf:RDF>
      <cc:Work
         rdf:about="">
        <dc:format>image/svg+xml</dc:format>
        <dc:type
           rdf:resource="http://purl.org/dc/dcmitype/StillImage" />
        <dc:title></dc:title>
      </cc:Work>
    </rdf:RDF>
  </metadata>
  <g
     inkscape:label="Layer 1"
     inkscape:groupmode="layer"
     id="layer1"
     transform="translate(0,-540.36218)">
    <rect
       style="fill:#9ecae1;fill-opacity:1;stroke:none"
       id="rect4541"
       width="32"
       height="160"
       x="416"
       y="604.36218"
       ry="15.999997" />
    <rect
       style="fill:#6baed6;fill-opacity:1;stroke:none"
       id="rect3953-7"
       width="32"
       height="224"
       x="416"
       y="764.36218"
       ry="15.999997" />
    <path
       transform="translate(320,556.36218)"
       sodipodi:type="arc"
       style="fill:#9ecae1;fill-opacity:1;stroke:none"
       id="path3987-89"
       sodipodi:cx="112"
       sodipodi:cy="208"
       sodipodi:rx="48"
       sodipodi:ry="48"
       d="m 160,208 a 48,48 0 1 1 -96,0 48,48 0 1 1 96,0 z" />
    <path
       sodipodi:type="arc"
       style="fill:#6baed6;fill-opacity:1;stroke:none"
       id="path4537"
       sodipodi:cx="112"
       sodipodi:cy="208"
       sodipodi:rx="32"
       sodipodi:ry="32"
       d="m 144,208 a 32,32 0 1 1 -64,0 32,32 0 1 1 64,0 z"
       transform="translate(320,556.36218)" />
    <rect
       ry="15.999997"
       y="604.36218"
       x="240"
       height="80"
       width="32"
       id="rect4557"
       style="fill:#9ecae1;fill-opacity:1;stroke:none" />
    <rect
       ry="15.999997"
       y="684.36218"
       x="240"
       height="304"
       width="32"
       id="rect4559"
       style="fill:#6baed6;fill-opacity:1;stroke:none" />
    <path
       d="m 160,208 a 48,48 0 1 1 -96,0 48,48 0 1 1 96,0 z"
       sodipodi:ry="48"
       sodipodi:rx="48"
       sodipodi:cy="208"
       sodipodi:cx="112"
       id="path4561"
       style="fill:#9ecae1;fill-opacity:1;stroke:none"
       sodipodi:type="arc"
       transform="translate(144,476.36218)" />
    <path
       transform="translate(144,476.36218)"
       d="m 144,208 a 32,32 0 1 1 -64,0 32,32 0 1 1 64,0 z"
       sodipodi:ry="32"
       sodipodi:rx="32"
       sodipodi:cy="208"
       sodipodi:cx="112"
       id="path4563"
       style="fill:#6baed6;fill-opacity:1;stroke:none"
       sodipodi:type="arc" />
    <rect
       style="fill:#9ecae1;fill-opacity:1;stroke:none"
       id="rect4565"
       width="32"
       height="256"
       x="64"
       y="604.36218"
       ry="15.999997" />
    <rect
       style="fill:#6baed6;fill-opacity:1;stroke:none"
       id="rect4567"
       width="32"
       height="128"
       x="64"
       y="860.36218"
       ry="15.999997" />
    <path
       transform="translate(-32,652.36218)"
       sodipodi:type="arc"
       style="fill:#9ecae1;fill-opacity:1;stroke:none"
       id="path4569"
       sodipodi:cx="112"
       sodipodi:cy="208"
       sodipodi:rx="48"
       sodipodi:ry="48"
       d="m 160,208 a 48,48 0 1 1 -96,0 48,48 0 1 1 96,0 z" />
    <path
       sodipodi:type="arc"
       style="fill:#6baed6;fill-opacity:1;stroke:none"
       id="path4571"
       sodipodi:cx="112"
       sodipodi:cy="208"
       sodipodi:rx="32"
       sodipodi:ry="32"
       d="m 144,208 a 32,32 0 1 1 -64,0 32,32 0 1 1 64,0 z"
       transform="translate(-32,652.36218)" />
  </g>
</svg>
